<svg width="25" height="24" viewBox="0 0 25 24" fill="none" xmlns="http://www.w3.org/2000/svg">
<path d="M10.3895 15L9.08525 10.986L12.5 8.505L15.9148 10.986L14.6105 15H10.3895Z" stroke="white" stroke-width="1.2" stroke-miterlimit="10"/>
<path d="M15.5863 3.5025L12.5 5.745L9.41376 3.5025" stroke="white" stroke-width="1.2" stroke-miterlimit="10"/>
<path d="M5.372 6.43872L6.551 10.0672L3.46475 12.309" stroke="white" stroke-width="1.2" stroke-miterlimit="10"/>
<path d="M4.99774 17.0452H8.81224L9.99124 20.673" stroke="white" stroke-width="1.2" stroke-miterlimit="10"/>
<path d="M14.9652 20.6467L16.1442 17.019H19.9595" stroke="white" stroke-width="1.2" stroke-miterlimit="10"/>
<path d="M21.503 12.2872L18.4167 10.0447L19.5957 6.41699" stroke="white" stroke-width="1.2" stroke-miterlimit="10"/>
<path d="M12.5 21C17.4706 21 21.5 16.9706 21.5 12C21.5 7.02944 17.4706 3 12.5 3C7.52944 3 3.5 7.02944 3.5 12C3.5 16.9706 7.52944 21 12.5 21Z" stroke="white" stroke-width="1.2" stroke-miterlimit="10"/>
</svg>
