<svg width="38" height="46" viewBox="0 0 38 46" fill="none" xmlns="http://www.w3.org/2000/svg">
<path d="M32.2583 32.175L19 45.4331L5.74175 32.175C-1.58058 24.8525 -1.58058 12.9808 5.74175 5.65844C13.0641 -1.6639 24.9358 -1.6639 32.2583 5.65844C39.5806 12.9808 39.5806 24.8525 32.2583 32.175ZM19 27.25C23.6023 27.25 27.3333 23.519 27.3333 18.9167C27.3333 14.3143 23.6023 10.5834 19 10.5834C14.3976 10.5834 10.6667 14.3143 10.6667 18.9167C10.6667 23.519 14.3976 27.25 19 27.25ZM19 23.0834C16.6987 23.0834 14.8333 21.2179 14.8333 18.9167C14.8333 16.6155 16.6987 14.75 19 14.75C21.3012 14.75 23.1667 16.6155 23.1667 18.9167C23.1667 21.2179 21.3012 23.0834 19 23.0834Z" fill="white"/>
</svg>
