<svg width="20" height="20" viewBox="0 0 20 20" fill="none" xmlns="http://www.w3.org/2000/svg">
<path d="M1 10L9.41451 3.92285C9.76402 3.67043 10.236 3.67043 10.5855 3.92285L19 10" stroke="#148A03" stroke-linecap="round"/>
<path d="M12.9167 9.25H7.08333C5.93458 9.25 5 10.1846 5 11.3333V14.6667C5 15.8154 5.93458 16.75 7.08333 16.75H12.9167C14.0654 16.75 15 15.8154 15 14.6667V11.3333C15 10.1846 14.0654 9.25 12.9167 9.25ZM14.1667 13.8333H13.3333V12.1667H14.1667V13.8333ZM10 13.8333C9.54042 13.8333 9.16667 13.4596 9.16667 13C9.16667 12.5404 9.54042 12.1667 10 12.1667C10.4596 12.1667 10.8333 12.5404 10.8333 13C10.8333 13.4596 10.4596 13.8333 10 13.8333ZM5.83333 12.1667H6.66667V13.8333H5.83333V12.1667ZM5.83333 14.6667H6.66667C7.12625 14.6667 7.5 14.2929 7.5 13.8333V12.1667C7.5 11.7071 7.12625 11.3333 6.66667 11.3333H5.83333C5.83333 10.6442 6.39417 10.0833 7.08333 10.0833H9.58333V11.3925C8.86667 11.5788 8.33333 12.2254 8.33333 13C8.33333 13.7746 8.86667 14.4212 9.58333 14.6075V15.9167H7.08333C6.39417 15.9167 5.83333 15.3558 5.83333 14.6667ZM12.9167 15.9167H10.4167V14.6075C11.1333 14.4212 11.6667 13.7746 11.6667 13C11.6667 12.2254 11.1333 11.5788 10.4167 11.3925V10.0833H12.9167C13.6058 10.0833 14.1667 10.6442 14.1667 11.3333H13.3333C12.8738 11.3333 12.5 11.7071 12.5 12.1667V13.8333C12.5 14.2929 12.8738 14.6667 13.3333 14.6667H14.1667C14.1667 15.3558 13.6058 15.9167 12.9167 15.9167Z" fill="#148A03"/>
</svg>
