<svg width="20" height="20" viewBox="0 0 20 20" fill="none" xmlns="http://www.w3.org/2000/svg">
<g clip-path="url(#clip0_270_1706)">
<path d="M11.5428 2.84133L11.1912 2.30743C10.9903 2.00219 10.5895 1.90157 10.2683 2.07536C10.2683 2.07536 9.62037 2.33196 9.07232 2.72364C5.68893 5.14254 2.75342 8.49618 2.75342 8.49618L3.98326 9.7811C6.88322 6.17915 7.85545 6.58919 8.32389 6.70438L12.1926 3.82891L11.5428 2.84133Z" fill="#148A03"/>
<path d="M12.7187 4.62734L12.3748 4.10547L8.625 6.89277L9.13562 7.36516C9.30137 7.5182 9.5527 7.53148 9.73383 7.39719L12.6066 5.26187C12.806 5.11344 12.8552 4.83523 12.7187 4.62734Z" fill="#148A03"/>
<path d="M1.92312 9.62063C1.83745 9.73375 1.85612 9.89422 1.96554 9.98489L2.77038 10.6527C2.87913 10.743 3.03944 10.7322 3.13507 10.6286L3.77671 9.93461L2.59886 8.72578L1.92312 9.62063Z" fill="#148A03"/>
<path d="M1.25516 11.1559C0.946836 11.6994 0.633516 12.4275 0.39668 13.3482C0.159687 14.2679 0 15.3795 0 16.6864V18.0096H0.937461V16.6864C0.937461 15.046 1.20465 13.7577 1.54039 12.8021C1.70844 12.3247 1.89344 11.9301 2.07039 11.6183C2.24711 11.3064 2.41695 11.0764 2.5459 10.9325L1.84711 10.3075C1.66352 10.513 1.46102 10.7933 1.25516 11.1559Z" fill="#148A03"/>
<path d="M13.7251 6.77969C13.7866 6.71773 13.8217 6.6325 13.8217 6.54558C13.8217 6.45824 13.7866 6.37301 13.7251 6.31148C13.6633 6.24992 13.5781 6.21457 13.491 6.21457C13.4039 6.21457 13.3186 6.24992 13.257 6.31148C13.1955 6.37301 13.1602 6.45824 13.1602 6.54558C13.1602 6.6325 13.1955 6.71773 13.257 6.77969C13.3186 6.84121 13.4038 6.87617 13.491 6.87617C13.5781 6.87617 13.6633 6.84121 13.7251 6.77969Z" fill="#148A03"/>
<path d="M15.8387 9.12328C15.9799 9.00727 16.0003 8.79895 15.8845 8.65754C15.7683 8.5166 15.56 8.49621 15.4188 8.6118C15.2776 8.72782 15.257 8.93657 15.373 9.07754C15.489 9.21891 15.6976 9.2393 15.8387 9.12328Z" fill="#148A03"/>
<path d="M16.4022 9.84766C16.255 9.95617 16.2234 10.1633 16.3317 10.3105C16.4398 10.4573 16.6469 10.4888 16.7941 10.3807C16.9415 10.2726 16.9731 10.0655 16.8648 9.91836C16.7564 9.77117 16.5494 9.73957 16.4022 9.84766Z" fill="#148A03"/>
<path d="M19.3465 14.0193C19.2681 13.8542 19.0707 13.7839 18.9056 13.8625C18.7407 13.9411 18.6704 14.1382 18.749 14.3033C18.8274 14.4684 19.0249 14.5382 19.19 14.4601C19.3549 14.3814 19.4249 14.1839 19.3465 14.0193Z" fill="#148A03"/>
<path d="M18.1556 12.4728C17.9965 12.5631 17.9406 12.7648 18.0304 12.924C18.1204 13.0828 18.3223 13.139 18.4814 13.0487C18.6404 12.9589 18.6966 12.7568 18.6065 12.598C18.5165 12.4391 18.3146 12.383 18.1556 12.4728Z" fill="#148A03"/>
<path d="M14.8177 7.91821C14.9527 7.79474 14.9618 7.58556 14.8385 7.45083C14.715 7.3161 14.5056 7.30696 14.3709 7.43001C14.2362 7.55353 14.2268 7.76267 14.3503 7.89743C14.4738 8.03216 14.683 8.04173 14.8177 7.91821Z" fill="#148A03"/>
<path d="M17.3172 11.1347C17.1641 11.2345 17.1209 11.4395 17.2207 11.5925C17.3203 11.7455 17.5253 11.7888 17.6783 11.689C17.8316 11.5896 17.8746 11.3845 17.775 11.2315C17.6752 11.0785 17.4702 11.0349 17.3172 11.1347Z" fill="#148A03"/>
<path d="M19.9783 15.4946C19.9133 15.3233 19.7222 15.2377 19.5513 15.3025C19.3806 15.3678 19.2949 15.5587 19.3598 15.7296C19.4247 15.9005 19.6159 15.9862 19.7866 15.9213C19.9573 15.8564 20.0432 15.6652 19.9783 15.4946Z" fill="#148A03"/>
<path d="M11.8219 7.39013C11.7602 7.45165 11.7249 7.53692 11.7249 7.6238C11.7249 7.71114 11.7602 7.79638 11.8219 7.8579C11.8835 7.91942 11.9687 7.95481 12.0557 7.95481C12.1429 7.95481 12.228 7.91942 12.2898 7.8579C12.3513 7.79638 12.3867 7.7111 12.3867 7.6238C12.3867 7.53689 12.3513 7.45165 12.2898 7.39013C12.228 7.3286 12.1429 7.29321 12.0557 7.29321C11.9687 7.29321 11.8835 7.3286 11.8219 7.39013Z" fill="#148A03"/>
<path d="M15.7701 14.6447C15.7169 14.4697 15.532 14.3711 15.3572 14.4243C15.1823 14.4775 15.0838 14.6622 15.137 14.8372C15.1902 15.0123 15.3751 15.1104 15.5497 15.0576C15.7245 15.004 15.8233 14.8193 15.7701 14.6447Z" fill="#148A03"/>
<path d="M12.7294 8.67837C12.5716 8.77025 12.5182 8.97279 12.6103 9.13079C12.7022 9.2888 12.9047 9.34204 13.0627 9.25009C13.2205 9.15822 13.274 8.95568 13.1821 8.79767C13.09 8.6397 12.8875 8.5865 12.7294 8.67837Z" fill="#148A03"/>
<path d="M15.2519 13.1265C15.1872 12.9556 14.9965 12.8691 14.8255 12.934C14.6545 12.9984 14.5683 13.1893 14.6327 13.3602C14.6974 13.5311 14.8882 13.6176 15.0591 13.5527C15.2302 13.4883 15.3163 13.2974 15.2519 13.1265Z" fill="#148A03"/>
<path d="M15.7856 15.9471C15.6073 15.987 15.495 16.1637 15.5349 16.3421C15.575 16.5205 15.7518 16.6324 15.9302 16.5929C16.1085 16.5526 16.2206 16.3762 16.1807 16.1974C16.1407 16.0194 15.964 15.9071 15.7856 15.9471Z" fill="#148A03"/>
<path d="M13.5044 10.0589C13.3419 10.1421 13.2776 10.3412 13.361 10.5038C13.4443 10.6664 13.6437 10.7309 13.8063 10.6473C13.9689 10.5641 14.0332 10.3649 13.9498 10.2019C13.8664 10.0394 13.667 9.97532 13.5044 10.0589Z" fill="#148A03"/>
<path d="M14.6414 11.6453C14.567 11.4785 14.3714 11.4037 14.2046 11.4781C14.0377 11.5526 13.9626 11.748 14.0371 11.9152C14.1117 12.0819 14.3071 12.1568 14.4741 12.0824C14.6411 12.0079 14.7159 11.8125 14.6414 11.6453Z" fill="#148A03"/>
<path d="M10.7615 8.77856C10.7615 8.69165 10.7261 8.60641 10.6646 8.54446C10.603 8.48294 10.5178 8.44801 10.4307 8.44801C10.3436 8.44801 10.2583 8.48294 10.1967 8.54446C10.135 8.60641 10.0999 8.69165 10.0999 8.77856C10.0999 8.8659 10.135 8.95114 10.1967 9.01266C10.2583 9.07422 10.3436 9.10958 10.4307 9.10958C10.5177 9.10958 10.603 9.07422 10.6646 9.01266C10.7261 8.95114 10.7615 8.8659 10.7615 8.77856Z" fill="#148A03"/>
<path d="M11.2661 10.3525C11.2172 10.1766 11.0351 10.0734 10.859 10.1221C10.6827 10.1712 10.5796 10.3533 10.6282 10.5292C10.6771 10.7055 10.8595 10.8086 11.0354 10.76C11.2116 10.7109 11.3148 10.5288 11.2661 10.3525Z" fill="#148A03"/>
<path d="M12.0939 16.9659C11.9115 16.9771 11.7726 17.1338 11.7841 17.3164C11.7953 17.4989 11.9523 17.6374 12.1347 17.6262C12.317 17.615 12.4557 17.4582 12.4445 17.2756C12.4334 17.0931 12.2764 16.9542 12.0939 16.9659Z" fill="#148A03"/>
<path d="M12.2855 15.5229H12.2858C12.2641 15.3416 12.0997 15.2119 11.9179 15.2335C11.7367 15.2552 11.6071 15.4194 11.6285 15.6011C11.6502 15.7824 11.8148 15.9122 11.9962 15.8905C12.1776 15.8689 12.3072 15.7042 12.2855 15.5229Z" fill="#148A03"/>
<path d="M12.0324 13.7831C12.0013 13.6026 11.8305 13.482 11.6502 13.5128C11.4702 13.5439 11.3494 13.7149 11.3803 13.8949C11.4113 14.075 11.5822 14.196 11.7625 14.1648C11.9425 14.1341 12.0633 13.9627 12.0324 13.7831Z" fill="#148A03"/>
<path d="M11.6917 12.0586C11.6518 11.8802 11.4751 11.7679 11.2966 11.8079C11.1183 11.8478 11.006 12.0241 11.0459 12.2029C11.0856 12.3809 11.2626 12.4932 11.441 12.4532C11.6192 12.4138 11.7316 12.237 11.6917 12.0586Z" fill="#148A03"/>
</g>
<defs>
<clipPath id="clip0_270_1706">
<rect width="20" height="20" fill="white"/>
</clipPath>
</defs>
</svg>
