<svg width="24" height="18" viewBox="0 0 24 18" fill="none" xmlns="http://www.w3.org/2000/svg">
<path d="M19 0H5C2.243 0 0 2.243 0 5V13C0 15.757 2.243 18 5 18H19C21.757 18 24 15.757 24 13V5C24 2.243 21.757 0 19 0ZM22 11H20V7H22V11ZM12 11C10.897 11 10 10.103 10 9C10 7.897 10.897 7 12 7C13.103 7 14 7.897 14 9C14 10.103 13.103 11 12 11ZM2 7H4V11H2V7ZM2 13H4C5.103 13 6 12.103 6 11V7C6 5.897 5.103 5 4 5H2C2 3.346 3.346 2 5 2H11V5.142C9.28 5.589 8 7.141 8 9C8 10.859 9.28 12.411 11 12.858V16H5C3.346 16 2 14.654 2 13ZM19 16H13V12.858C14.72 12.411 16 10.859 16 9C16 7.141 14.72 5.589 13 5.142V2H19C20.654 2 22 3.346 22 5H20C18.897 5 18 5.897 18 7V11C18 12.103 18.897 13 20 13H22C22 14.654 20.654 16 19 16Z" fill="black"/>
</svg>
